<?xml version="1.0" encoding="utf-8"?>
<!-- Generator: Adobe Illustrator 24.0.0, SVG Export Plug-In . SVG Version: 6.00 Build 0)  -->
<svg version="1.1" xmlns="http://www.w3.org/2000/svg" xmlns:xlink="http://www.w3.org/1999/xlink" x="0px" y="0px"
	 viewBox="0 0 1440 320" style="enable-background:new 0 0 1440 320;" xml:space="preserve">
<style type="text/css">
	.st0{fill:url(#SVGID_1_);}
</style>
<g id="Layer_1">
	<linearGradient id="SVGID_1_" gradientUnits="userSpaceOnUse" x1="0" y1="102.3686" x2="1440" y2="102.3686">
		<stop  offset="0" style="stop-color:#FFFFFF"/>
		<stop  offset="0" style="stop-color:#8e2de2"/>
		<stop  offset="1" style="stop-color: #4a00e0"/>
	</linearGradient>
	<path class="st0" d="M0,192l48,5.3C96,203,192,213,288,192s192-75,288-101.3C672,64,768,64,864,80s192,48,288,64s192,16,240,16h48
		V0h-48c-48,0-144,0-240,0S960,0,864,0S672,0,576,0S384,0,288,0S96,0,48,0H0V192z"/>
</g>
<g id="Layer_2">
</g>
</svg>
